<svg width="32" height="32" viewBox="0 0 32 32" fill="none" xmlns="http://www.w3.org/2000/svg">
<style>@media (prefers-color-scheme: dark) {path:nth-of-type(2) {fill: #ff5a5a;}}</style>
<path d="M23.1933 1.76756C21.2688 2.54918 19.3653 3.33081 17.5286 4.231C15.6949 5.10452 13.945 6.14431 12.301 7.33732C10.6699 8.50782 9.25595 9.95465 8.12303 11.6124C7.56799 12.4514 7.11339 13.3526 6.76855 14.2977C6.59453 14.7763 6.44754 15.2642 6.32832 15.7593C6.26705 16.0086 6.21547 16.2594 6.16709 16.5135C6.11872 16.7676 6.08001 17.0225 6.04131 17.2798C6.01793 17.0209 6.00987 16.7603 6.00665 16.499C6.00342 16.2376 6.01632 15.9763 6.03405 15.7141C6.07108 15.188 6.1479 14.6654 6.26384 14.1509C6.50066 13.1112 6.88454 12.1105 7.40386 11.1793C7.92621 10.2466 8.55853 9.38003 9.28724 8.59808C9.64844 8.20606 10.0322 7.83662 10.4281 7.48171C10.8239 7.12679 11.24 6.79688 11.664 6.47987C13.3682 5.24104 15.2253 4.22785 17.1892 3.46551C19.1278 2.69717 21.1395 2.12825 23.1933 1.76756V1.76756Z" fill="#2C6C60"/>
<path d="M8.48098 15.9819C3.8854 21.5476 15.5017 31.9636 17.4391 24.4579C18.6485 19.3697 13.0814 11.6173 7.99964 16.2223" fill="#C82E2E"/>
<path d="M5.80022 23.1698C5.75668 23.4868 5.69703 23.799 5.63898 24.1095L5.45917 25.0363C5.34066 25.651 5.22537 26.2608 5.13668 26.8674C5.04437 27.4573 5.00122 28.0538 5.00768 28.6508C5.01205 28.9255 5.04611 29.1989 5.10927 29.4663C5.13818 29.5858 5.17786 29.7024 5.22779 29.8148C5.23989 29.8406 5.25278 29.8672 5.26568 29.8954L5.28583 29.9317L5.31406 29.9801C5.34147 30.0253 5.37695 30.0802 5.41243 30.1269C5.55561 30.3226 5.7369 30.4872 5.94536 30.6109C6.17109 30.747 6.41557 30.8492 6.67097 30.9142C7.23548 31.0524 7.81633 31.1121 8.39713 31.0917C9.0096 31.0769 9.62082 31.029 10.2281 30.9481C10.5369 30.9102 10.8465 30.8674 11.1577 30.8207C11.4689 30.7739 11.7809 30.7263 12.0978 30.6835C11.8188 30.8392 11.5334 30.9779 11.2399 31.1062C10.9465 31.2344 10.6506 31.3482 10.3482 31.4579C9.73707 31.6737 9.10667 31.8307 8.46565 31.9265C8.3044 31.9491 8.13832 31.9677 7.97304 31.9814C7.80777 31.9951 7.64008 31.9999 7.47077 31.9999C7.12528 32.002 6.78052 31.9682 6.442 31.8991C6.08273 31.8258 5.737 31.6971 5.41725 31.5176C5.08249 31.324 4.79107 31.0638 4.56103 30.7529C4.50308 30.6734 4.44925 30.591 4.39978 30.5061L4.36592 30.4464L4.33044 30.3794C4.30706 30.335 4.28611 30.2899 4.26595 30.2447C4.18927 30.0696 4.13037 29.8872 4.09018 29.7002C4.01909 29.3533 3.98985 28.9991 4.0031 28.6452C4.01451 28.3105 4.04982 27.977 4.10873 27.6474C4.16355 27.3247 4.23853 27.0021 4.32318 26.6931C4.6761 25.4649 5.17183 24.2824 5.80022 23.1698Z" fill="#2C6C60"/>
<path d="M12.3526 11.9948C12.6009 11.7522 12.8707 11.5327 13.1588 11.339C13.4498 11.1452 13.7546 10.9729 14.0707 10.8236C14.7084 10.5266 15.3794 10.3073 16.0693 10.1702C17.458 9.9008 18.8825 9.87133 20.2811 10.0831C20.9832 10.1846 21.676 10.3419 22.3532 10.5533C23.0356 10.7636 23.6982 11.0335 24.3333 11.36C24.9767 11.6903 25.5827 12.089 26.1409 12.5489C26.7096 13.0183 27.2088 13.5661 27.6236 14.1759C27.8303 14.4866 28.0099 14.8145 28.1605 15.1559C28.6214 16.1933 28.7683 17.3431 28.583 18.4631C28.4621 19.1898 28.231 19.8938 27.8977 20.5507C27.7363 20.8738 27.5559 21.187 27.3575 21.4888C27.1597 21.7872 26.9472 22.0755 26.7206 22.3527C25.8172 23.4405 24.7403 24.3715 23.5335 25.1081C22.9394 25.4751 22.3156 25.7916 21.6687 26.0543C21.3462 26.1833 21.018 26.2963 20.6859 26.3987C20.3541 26.4962 20.0168 26.5735 19.6757 26.6302C20.9581 26.1686 22.1605 25.5091 23.2392 24.6758C24.3127 23.873 25.2633 22.9179 26.0611 21.8405C26.2554 21.5735 26.4368 21.2976 26.6021 21.0153C26.7683 20.7353 26.9185 20.446 27.0519 20.149C27.3173 19.5673 27.4971 18.9503 27.5857 18.3171C27.7138 17.3879 27.5789 16.4414 27.1963 15.5851C27.0678 15.2986 26.9151 15.0237 26.7399 14.7631C26.3833 14.2342 25.9546 13.7577 25.4661 13.3475C24.97 12.9262 24.4321 12.5567 23.8609 12.2448C21.5005 10.9785 18.8203 10.4338 16.1532 10.6784C15.4838 10.746 14.8233 10.8839 14.1827 11.0897C13.8607 11.1944 13.5466 11.322 13.2426 11.4713C12.9324 11.6217 12.6348 11.7968 12.3526 11.9948V11.9948Z" fill="#2C6C60"/>
<path d="M18.8928 29.7841C18.8441 29.7789 18.7956 29.7711 18.7477 29.7607C18.7017 29.7486 18.6558 29.7365 18.6098 29.7228C18.5197 29.6945 18.4321 29.6589 18.3478 29.6163C18.2607 29.4776 18.1736 29.3413 18.0995 29.1993C17.9556 28.9226 17.8275 28.6379 17.7157 28.3467C17.6036 28.0644 17.4996 27.7877 17.3819 27.5304C17.3251 27.4049 17.2613 27.2826 17.1908 27.1642C17.1965 27.0835 17.1989 27.0029 17.2013 26.9125C17.2013 26.8681 17.2013 26.8246 17.2013 26.7794C17.2013 26.7343 17.2013 26.6875 17.2013 26.6375C17.2496 26.6441 17.2975 26.6535 17.3448 26.6657C17.3907 26.6786 17.4359 26.6939 17.4819 26.7109C17.5713 26.7449 17.6579 26.7862 17.7407 26.8343C17.8236 26.9733 17.8987 27.1168 17.9656 27.2642C18.097 27.5514 18.2035 27.8369 18.3131 28.1112C18.416 28.38 18.5338 28.6429 18.6662 28.8984C18.7295 29.021 18.802 29.1386 18.8831 29.2501L18.8879 29.505L18.8928 29.7841Z" fill="#2C6C60"/>
<path d="M15.7468 28.087C15.7872 28.0991 15.8218 28.1144 15.8589 28.1273L15.9605 28.1668C16.0282 28.1926 16.0895 28.2193 16.1491 28.2475C16.1782 28.337 16.2209 28.4217 16.2588 28.5096C16.3394 28.6839 16.4257 28.8589 16.5136 29.0372C16.6015 29.2154 16.6926 29.3961 16.778 29.5833C16.8208 29.6768 16.8627 29.772 16.9022 29.8688C16.8547 30.0104 16.7906 30.1458 16.7111 30.2721C16.5579 30.2189 16.4362 30.164 16.308 30.1108C16.2725 30.0237 16.2338 29.9366 16.1943 29.8495C16.1137 29.6752 16.0266 29.4994 15.9379 29.3219C15.8492 29.1445 15.7589 28.9622 15.6735 28.775C15.6291 28.6815 15.5928 28.5847 15.5469 28.4895C15.5693 28.4214 15.5963 28.3548 15.6275 28.2902L15.6783 28.1894C15.7041 28.1539 15.7219 28.1217 15.7468 28.087Z" fill="#2C6C60"/>
<path d="M24.5349 1.27551C25.7442 -0.418407 28.163 -0.660393 27.9211 2.00147C27.2578 2.27835 26.523 2.33371 25.8257 2.15932C25.1285 1.98493 24.5061 1.5901 24.0511 1.03352" fill="#2C6C60"/>
</svg>
